<?xml version="1.0" encoding="UTF-8"?>
<svg version="1.1" xmlns="http://www.w3.org/2000/svg" width="256" height="256">
<path d="M0 0 C21.91990125 18.83998437 37.71891635 42.98042721 45.3671875 70.92578125 C45.70621094 72.11171875 46.04523438 73.29765625 46.39453125 74.51953125 C54.13868124 107.35187221 46.80410789 142.5293138 29.3671875 170.92578125 C26.32910305 175.51124366 22.91709455 179.72945713 19.3671875 183.92578125 C18.54863281 184.91964844 17.73007813 185.91351563 16.88671875 186.9375 C0.47698217 205.92910134 -21.59931542 218.33422048 -45.6328125 224.92578125 C-46.80714844 225.26480469 -47.98148438 225.60382813 -49.19140625 225.953125 C-80.98112527 233.50884135 -117.09858527 227.14277911 -144.859375 210.36328125 C-176.60558781 190.29589583 -197.21559528 158.32744551 -206.15551758 122.24243164 C-213.04835897 88.7865892 -205.044192 53.89961962 -186.4765625 25.64453125 C-184.29399979 22.63955361 -182.01752287 19.77279411 -179.6328125 16.92578125 C-179.20693848 16.41096191 -178.78106445 15.89614258 -178.34228516 15.36572266 C-161.44774313 -4.81335855 -138.88009391 -18.14975872 -113.6328125 -25.07421875 C-112.45847656 -25.41324219 -111.28414063 -25.75226562 -110.07421875 -26.1015625 C-72.22192473 -35.09821946 -29.69422208 -24.75224302 0 0 Z " fill="#652D56" transform="translate(207.6328125,28.07421875)"/>
<path d="M0 0 C2.16356743 0.00851415 4.32448332 -0.02039754 6.48779297 -0.05200195 C19.04306482 -0.11414576 35.06586035 1.23696813 44.93310547 9.87963867 C47.29120595 12.58908937 47.42021527 15.21113667 47.40991211 18.64208984 C47.40983658 19.48273483 47.40976105 20.32337982 47.40968323 21.1894989 C47.40452194 22.09271378 47.39936066 22.99592865 47.39404297 23.92651367 C47.39192055 25.31849724 47.39192055 25.31849724 47.38975525 26.73860168 C47.38415609 29.7036155 47.37160376 32.66855391 47.35888672 35.63354492 C47.35387161 37.64330946 47.34930872 39.65307517 47.34521484 41.6628418 C47.33418693 46.59060524 47.31692289 51.5183123 47.29638672 56.44604492 C48.35277344 56.42646729 49.40916016 56.40688965 50.49755859 56.38671875 C62.97240448 56.22337001 77.48050748 56.5366453 87.29638672 65.44604492 C89.83838807 68.36352193 90.67513949 70.16355195 90.71630859 74.02758789 C90.73222046 74.92887421 90.74813232 75.83016052 90.76452637 76.75875854 C90.76472778 77.72548492 90.7649292 78.6922113 90.76513672 79.68823242 C90.77275024 80.68936066 90.78036377 81.69048889 90.78820801 82.72195435 C90.79900659 84.83845528 90.8018631 86.9550095 90.79736328 89.0715332 C90.79639222 92.30274857 90.83799148 95.5315794 90.88232422 98.76245117 C90.88753234 100.82103998 90.89021939 102.87963703 90.89013672 104.93823242 C90.90653198 105.90091034 90.92292725 106.86358826 90.93981934 107.85543823 C90.89380509 112.34337124 90.77755856 115.45834626 87.87280273 119.01806641 C73.87745137 132.20709031 49.68232464 130.07709925 31.85058594 129.6340332 C21.44688539 129.08376191 9.20478734 126.59986557 1.79638672 118.82104492 C0.29638672 116.44604492 0.29638672 116.44604492 0.29638672 114.44604492 C-0.43064453 114.45764648 -1.15767578 114.46924805 -1.90673828 114.48120117 C-7.35479205 114.53009396 -12.55113486 114.36398205 -17.95361328 113.63354492 C-23.16463017 113.13822691 -25.69734446 114.01435387 -29.84033203 117.10229492 C-37.93006222 122.93639803 -49.12975697 123.27906428 -58.70361328 122.44604492 C-70.84320544 119.79050914 -81.11350673 113.24588771 -88.36376953 103.12963867 C-95.49520614 91.93310797 -97.6821717 80.32705987 -95.04736328 67.16870117 C-91.4876906 55.24686639 -83.83363663 45.33899925 -73.15283203 38.91088867 C-64.01370263 34.15410356 -55.97868872 32.84897973 -45.70361328 33.44604492 C-44.71361328 33.77604492 -43.72361328 34.10604492 -42.70361328 34.44604492 C-42.75859985 33.4935083 -42.75859985 33.4935083 -42.81469727 32.52172852 C-42.96092643 29.62200145 -43.05145488 26.72304957 -43.14111328 23.82104492 C-43.19976562 22.82202148 -43.25841797 21.82299805 -43.31884766 20.79370117 C-43.48791476 13.4996633 -43.48791476 13.4996633 -41.22192383 10.45556641 C-30.02972938 0.70752608 -14.17855881 -0.08460523 0 0 Z " fill="#070502" transform="translate(130.70361328125,56.553955078125)"/>
<path d="M0 0 C3.28382767 3.05431906 4.99621947 6.60887053 6.875 10.625 C7.22578613 11.37483154 7.57657227 12.12466309 7.93798828 12.8972168 C10.2986445 18.1009714 12.2578956 23.33294112 13.875 28.8125 C14.16093018 29.77760498 14.16093018 29.77760498 14.45263672 30.76220703 C17.50330839 41.75842899 18.39052764 52.61612182 18.375 64 C18.37445618 64.67709015 18.37391235 65.3541803 18.37335205 66.05178833 C18.26385283 95.83864348 8.27529089 123.21479271 -11 146 C-11.81855469 146.99386719 -12.63710937 147.98773438 -13.48046875 149.01171875 C-29.89020533 168.00332009 -51.96650292 180.40843923 -76 187 C-77.17433594 187.33902344 -78.34867188 187.67804688 -79.55859375 188.02734375 C-111.34831277 195.5830601 -147.46577277 189.21699786 -175.2265625 172.4375 C-189.01622182 163.72079385 -201.76390838 152.48977786 -211 139 C-210.34 138.67 -209.68 138.34 -209 138 C-208.5153125 138.64066406 -208.030625 139.28132812 -207.53125 139.94140625 C-203.11180255 145.64419325 -198.69408166 150.57126982 -193 155 C-192.02675781 155.75925781 -191.05351562 156.51851562 -190.05078125 157.30078125 C-176.51383329 167.54479448 -161.43526536 175.60410479 -145 180 C-143.86046875 180.30550781 -142.7209375 180.61101562 -141.546875 180.92578125 C-130.16933417 183.56968116 -118.63262071 183.71290607 -107 184 C-111.42566629 178.84091159 -115.97564262 173.87832465 -120.78979492 169.08081055 C-121.42812759 168.44072556 -122.06646027 167.80064056 -122.72413635 167.14115906 C-124.80709502 165.05384582 -126.89363424 162.97015648 -128.98046875 160.88671875 C-130.44076384 159.42574911 -131.90091054 157.96463113 -133.36091614 156.50337219 C-136.40785333 153.45496699 -139.45657613 150.40836212 -142.5065918 147.36303711 C-146.41390952 143.46143646 -150.31669312 139.5553359 -154.2181654 135.64789104 C-157.22663342 132.63581048 -160.23747784 129.62611444 -163.24904823 126.617136 C-164.68948048 125.17737005 -166.12917243 123.73686305 -167.5681057 122.29559898 C-169.57578982 120.28537477 -171.58665239 118.2783847 -173.59838867 116.2722168 C-174.190159 115.67842224 -174.78192932 115.08462769 -175.39163208 114.47283936 C-178.12858818 111.74989724 -180.81373562 109.20659999 -184 107 C-183.67 106.34 -183.34 105.68 -183 105 C-182.35933594 105.33773437 -181.71867187 105.67546875 -181.05859375 106.0234375 C-169.90239495 111.77611229 -159.53745798 113.86655005 -147.16015625 110.69921875 C-142.41575716 109.1635091 -137.83788668 107.25891799 -133.71606445 104.43554688 C-128.96953879 101.9268214 -124.14792469 102.98859235 -118.9375 103.4375 C-117.84888672 103.49615234 -116.76027344 103.55480469 -115.63867188 103.61523438 C-107.63426371 104.26051282 -107.63426371 104.26051282 -104.45703125 107.96484375 C-103.97621094 108.96644531 -103.49539062 109.96804687 -103 111 C-100.22640818 112.81350234 -98.06753791 113.87863418 -95 115 C-94.00226563 115.37382812 -93.00453125 115.74765625 -91.9765625 116.1328125 C-82.62225992 119.03447252 -73.58027817 119.36303115 -63.8125 119.375 C-62.55421387 119.37661133 -61.29592773 119.37822266 -59.99951172 119.37988281 C-49.70610107 119.25860948 -39.04597681 118.83488303 -29.5 114.625 C-28.5615625 114.22539062 -27.623125 113.82578125 -26.65625 113.4140625 C-23.15732559 111.5513998 -19.81015463 109.62030925 -18 106 C-17.89045364 104.54613984 -17.84099008 103.08750905 -17.82299805 101.62963867 C-17.81016281 100.7249736 -17.79732758 99.82030853 -17.78410339 98.88822937 C-17.77671646 97.90804337 -17.76932953 96.92785736 -17.76171875 95.91796875 C-17.74961113 94.40847404 -17.74961113 94.40847404 -17.73725891 92.8684845 C-17.72341283 90.73582689 -17.71269303 88.60314706 -17.70483398 86.47045898 C-17.68762407 83.2109978 -17.64374247 79.95255153 -17.59960938 76.69335938 C-17.58948233 74.6224033 -17.58096626 72.55143859 -17.57421875 70.48046875 C-17.54795662 69.01929878 -17.54795662 69.01929878 -17.52116394 67.52861023 C-17.53488546 63.2411919 -17.57217767 60.7121168 -19.81567383 56.9777832 C-30.42256177 47.37384901 -46.75297943 47.82793879 -60 47 C-60.33 32.48 -60.66 17.96 -61 3 C-53.125 9.75 -53.125 9.75 -50.65260315 12.22714233 C-50.08764633 12.79072449 -49.52268951 13.35430664 -48.94061279 13.93496704 C-48.34863098 14.53054413 -47.75664917 15.12612122 -47.14672852 15.73974609 C-46.17959175 16.70666382 -46.17959175 16.70666382 -45.19291687 17.69311523 C-43.08586441 19.80085819 -40.98236526 21.91210893 -38.87890625 24.0234375 C-37.40939373 25.49481727 -35.93965865 26.9659748 -34.4697113 28.43692017 C-30.61900472 32.29142775 -26.77131193 36.14892999 -22.92425537 40.00708008 C-18.99104551 43.95055623 -15.0549702 47.89117004 -11.11914062 51.83203125 C-3.40996554 59.55190099 4.29602623 67.27493989 12 75 C14.59688611 72.40311389 13.23000099 65.1641184 13.24023438 61.44897461 C13.24975574 59.36593762 13.2806674 57.28396887 13.3125 55.20117188 C13.38450069 46.10662266 12.28578885 37.85146039 10 29 C9.82678223 28.27578857 9.65356445 27.55157715 9.47509766 26.80541992 C7.55755023 18.9153081 4.74963149 11.80865798 1.171875 4.546875 C0 2 0 2 0 0 Z " fill="#4C2141" transform="translate(238,66)"/>
<path d="M0 0 C6.04004522 4.46674003 9.9178726 9.56582443 13.171875 16.3046875 C13.54570313 17.06136719 13.91953125 17.81804687 14.3046875 18.59765625 C17.03017523 27.10559766 16.13314335 38.67331538 12.62890625 46.80859375 C6.93995705 56.55454157 -1.55062506 63.56772875 -12.3515625 66.796875 C-22.29692015 68.83614392 -31.40771299 67.16583649 -40.08203125 61.94921875 C-48.82969534 55.75779806 -53.47398666 48.36710251 -56.828125 38.3046875 C-57.67934808 26.01079347 -56.62555795 16.12901043 -48.65625 6.1875 C-35.34272403 -7.52429384 -16.56012409 -9.92692521 0 0 Z " fill="#FAD740" transform="translate(100.828125,103.6953125)"/>
<path d="M0 0 C3.28382767 3.05431906 4.99621947 6.60887053 6.875 10.625 C7.22578613 11.37483154 7.57657227 12.12466309 7.93798828 12.8972168 C10.2986445 18.1009714 12.2578956 23.33294112 13.875 28.8125 C14.16093018 29.77760498 14.16093018 29.77760498 14.45263672 30.76220703 C17.50330839 41.75842899 18.39052764 52.61612182 18.375 64 C18.37445618 64.67709015 18.37391235 65.3541803 18.37335205 66.05178833 C18.26385283 95.83864348 8.27529089 123.21479271 -11 146 C-11.81855469 146.99386719 -12.63710937 147.98773438 -13.48046875 149.01171875 C-29.89020533 168.00332009 -51.96650292 180.40843923 -76 187 C-77.17433594 187.33902344 -78.34867188 187.67804688 -79.55859375 188.02734375 C-111.34831277 195.5830601 -147.46577277 189.21699786 -175.2265625 172.4375 C-189.01622182 163.72079385 -201.76390838 152.48977786 -211 139 C-210.34 138.67 -209.68 138.34 -209 138 C-208.5153125 138.64066406 -208.030625 139.28132812 -207.53125 139.94140625 C-203.11180255 145.64419325 -198.69408166 150.57126982 -193 155 C-192.02675781 155.75925781 -191.05351562 156.51851562 -190.05078125 157.30078125 C-161.87142393 178.62535974 -127.09449663 188.04570486 -91.94848633 183.23071289 C-66.01824421 179.03522563 -42.90881732 167.12392302 -24 149 C-23.13375 148.175 -22.2675 147.35 -21.375 146.5 C-20.59125 145.675 -19.8075 144.85 -19 144 C-18.41992188 143.40316406 -17.83984375 142.80632812 -17.2421875 142.19140625 C-4.23602403 128.29266293 5.13450207 110.32552506 10 92 C10.26184082 91.01966797 10.52368164 90.03933594 10.79345703 89.02929688 C12.93497388 80.1788787 13.46761099 71.80758375 13.39111328 62.75927734 C13.37501187 60.5016645 13.39107001 58.24584081 13.41015625 55.98828125 C13.42355693 46.58094147 12.3802315 38.14039216 10 29 C9.82694336 28.27731934 9.65388672 27.55463867 9.47558594 26.81005859 C7.56039645 18.918008 4.75013129 11.80967242 1.171875 4.546875 C0 2 0 2 0 0 Z " fill="#430838" transform="translate(238,66)"/>
<path d="M0 0 C0 1.32 0 2.64 0 4 C-1.26230051 4.64205902 -2.53568693 5.26230861 -3.8125 5.875 C-4.52019531 6.22304687 -5.22789062 6.57109375 -5.95703125 6.9296875 C-15.28059927 10.20909397 -24.86814675 10.34464161 -34.64208984 10.31567383 C-36.86475795 10.31251456 -39.08608907 10.33605566 -41.30859375 10.36132812 C-52.85186181 10.41272348 -64.16280639 9.63438639 -74 3 C-73.875 1.1875 -73.875 1.1875 -73 -1 C-54.82580902 -12.25068965 -18.08386753 -10.70269711 0 0 Z " fill="#F9D73F" transform="translate(212,127)"/>
<path d="M0 0 C2.43550156 0.02914862 4.86883876 0.0205198 7.30444336 0.00756836 C19.27601266 0.02362328 29.11325019 1.65192139 39.73999023 7.46655273 C39.73999023 8.45655273 39.73999023 9.44655273 39.73999023 10.46655273 C27.53972468 16.67370538 15.5361357 17.73125794 2.05249023 17.77905273 C0.92472168 17.78453125 -0.20304687 17.79000977 -1.36499023 17.7956543 C-11.59302899 17.70903928 -22.89088574 17.00729047 -32.26000977 12.46655273 C-34.32250977 10.27905273 -34.32250977 10.27905273 -35.26000977 8.46655273 C-25.43041118 -0.17900282 -12.417121 -0.16197883 0 0 Z " fill="#F9D63F" transform="translate(130.260009765625,64.533447265625)"/>
<path d="M0 0 C1.0621875 0.27714844 2.124375 0.55429688 3.21875 0.83984375 C4.64576737 1.20598636 6.07285448 1.57185722 7.5 1.9375 C8.19609375 2.11990234 8.8921875 2.30230469 9.609375 2.49023438 C19.23848611 4.94209137 28.58977154 5.259064 38.5 5.3125 C39.49929031 5.31792313 39.49929031 5.31792313 40.51876831 5.32345581 C50.96381498 5.3462482 60.0797956 4.28912237 70 1 C72.475 0.505 72.475 0.505 75 0 C75 3.63 75 7.26 75 11 C55.35899843 19.63878077 30.4719364 23.33479838 9.625 16.125 C8.64789063 15.79757813 7.67078125 15.47015625 6.6640625 15.1328125 C3.96227213 13.98395736 2.04370653 13.11566803 0 11 C-0.390625 8.30078125 -0.390625 8.30078125 -0.25 5.3125 C-0.21390625 4.31863281 -0.1778125 3.32476562 -0.140625 2.30078125 C-0.09421875 1.54152344 -0.0478125 0.78226563 0 0 Z " fill="#EDB342" transform="translate(138,139)"/>
<path d="M0 0 C0 3.96 0 7.92 0 12 C-11.42158975 18.36973275 -22.49858577 19.47052289 -35.4375 19.3125 C-37.41073242 19.31733398 -37.41073242 19.31733398 -39.42382812 19.32226562 C-52.12632475 19.25312784 -62.84411134 18.32722043 -74 12 C-74 8.37 -74 4.74 -74 1 C-72.15535156 1.41572266 -72.15535156 1.41572266 -70.2734375 1.83984375 C-68.64064416 2.20581467 -67.00783059 2.57169532 -65.375 2.9375 C-64.16263672 3.21110352 -64.16263672 3.21110352 -62.92578125 3.49023438 C-39.7832754 8.66437186 -21.75696663 0 0 0 Z " fill="#EFB442" transform="translate(213,159)"/>
<path d="M0 0 C0.350288 3.39909093 0.47610982 6.60838623 0 10 C-6.73468149 17.3119399 -20.47989811 18.72846298 -29.97216797 19.1237793 C-33.39878225 19.20633301 -36.82245246 19.23485062 -40.25 19.25 C-41.40113281 19.270625 -42.55226562 19.29125 -43.73828125 19.3125 C-54.60190208 19.3614904 -64.01944451 17.60564417 -73.453125 12.0859375 C-75.94811688 8.72147876 -75.28841708 5.047453 -75 1 C-73.81664063 1.27714844 -72.63328125 1.55429688 -71.4140625 1.83984375 C-59.32577255 4.71430235 -59.32577255 4.71430235 -47 6 C-46.3395166 6.02578125 -45.6790332 6.0515625 -44.99853516 6.078125 C-30.65332668 6.57396284 -17.52967601 5.08184207 -3.8203125 0.55078125 C-2 0 -2 0 0 0 Z " fill="#EEB442" transform="translate(171,83)"/>
<path d="M0 0 C1.65 0 3.3 0 5 0 C5 3.3 5 6.6 5 10 C8.3 10 11.6 10 15 10 C15.33 11.32 15.66 12.64 16 14 C14.45049732 15.54950268 12.90009406 15.21655193 10.74609375 15.31640625 C9.46508789 15.37924805 9.46508789 15.37924805 8.15820312 15.44335938 C7.26037109 15.48267578 6.36253906 15.52199219 5.4375 15.5625 C4.53580078 15.60568359 3.63410156 15.64886719 2.70507812 15.69335938 C0.47021515 15.79978142 -1.76476308 15.90179988 -4 16 C-4.38218767 17.65614657 -4.71395102 19.32457024 -5 21 C-3.13441749 22.86558251 0.18975878 22.17692084 2.6875 22.25 C10.75085263 22.80070808 10.75085263 22.80070808 13.875 25.0625 C16.24897152 28.34416651 16.84317905 30.08840607 16.51953125 34.0625 C15.5961805 37.50597346 13.86314748 39.00824523 11 41 C7.6875 41.3125 7.6875 41.3125 5 41 C5 44.3 5 47.6 5 51 C3.02 51.495 3.02 51.495 1 52 C0 51 0 51 -0.09765625 48.71484375 C-0.04882812 44.85742188 -0.04882812 44.85742188 0 41 C-3.3 41 -6.6 41 -10 41 C-10.33 39.68 -10.66 38.36 -11 37 C-9.45049732 35.45049732 -7.90009406 35.78344807 -5.74609375 35.68359375 C-4.89208984 35.64169922 -4.03808594 35.59980469 -3.15820312 35.55664062 C-2.26037109 35.51732422 -1.36253906 35.47800781 -0.4375 35.4375 C0.91504883 35.37272461 0.91504883 35.37272461 2.29492188 35.30664062 C4.52978485 35.20021858 6.76476308 35.09820012 9 35 C9.38218767 33.34385343 9.71395102 31.67542976 10 30 C8.28631327 28.28631327 6.11566233 28.89967617 3.83032227 28.86279297 C-4.80501164 28.65402888 -4.80501164 28.65402888 -8.10546875 26.84765625 C-10.43507443 24.27210979 -11.0343056 21.80445808 -11.625 18.4375 C-10.82760832 14.05184575 -9.60142761 12.58363285 -6 10 C-2.6875 9.6875 -2.6875 9.6875 0 10 C0 6.7 0 3.4 0 0 Z " fill="#060501" transform="translate(77,109)"/>
<path d="M0 0 C0 3.3 0 6.6 0 10 C-1.30453125 10.09796875 -2.6090625 10.1959375 -3.953125 10.296875 C-20.40306483 11.43583397 -20.40306483 11.43583397 -35.125 18.25 C-39.44950014 20.88230443 -42.99741791 20.27040984 -48 20 C-50.31 15.38 -52.62 10.76 -55 6 C-52.26396484 6.05220703 -52.26396484 6.05220703 -49.47265625 6.10546875 C-27.18951417 6.54954777 -27.18951417 6.54954777 -5.671875 1.39453125 C-2 0 -2 0 0 0 Z " fill="#E7AE40" transform="translate(171,103)"/>
<path d="M0 0 C3.3 0 6.6 0 10 0 C10 4.29 10 8.58 10 13 C4.51322045 13.08441199 -0.59280411 12.92037377 -6 12 C-4.43358249 7.69235185 -2.31663844 3.93828536 0 0 Z " fill="#E0A93E" transform="translate(121,151)"/>
<path d="M0 0 C1.98 0 3.96 0 6 0 C6 3.96 6 7.92 6 12 C3.69 12 1.38 12 -1 12 C-0.67 8.04 -0.34 4.08 0 0 Z " fill="#EAB141" transform="translate(124,131)"/>
</svg>
